<?xml version="1.0" encoding="utf-8"?>
<!-- Generator: Adobe Illustrator 23.0.3, SVG Export Plug-In . SVG Version: 6.00 Build 0)  -->
<svg version="1.1" id="Layer_1" xmlns="http://www.w3.org/2000/svg" xmlns:xlink="http://www.w3.org/1999/xlink" x="0px" y="0px"
	 viewBox="0 0 126 64.3" style="enable-background:new 0 0 126 64.3;" xml:space="preserve">
<style type="text/css">
	.st0{fill:#F1719E;}
</style>
<path class="st0" d="M653.3,116.7v4.7h1.9v-0.5h8.6v0.4h0.5c0.8,0,1.4-0.6,1.4-1.4v-4.7h-10.9C654,115.2,653.3,115.9,653.3,116.7
	 M660.4,116.7h3.4v0.8h-3.4V116.7z M660.4,118.7h3.4v0.8h-3.4V118.7z M656,116.7h2.5v0.8h-3.3C655.2,117,655.5,116.7,656,116.7
	 M655.2,118.7h3.3v0.8h-3.3V118.7z"/>
<path class="st0" d="M660.9,107.1c0-0.1,0.1-0.2,0.1-0.4c0-0.8-0.7-1.5-1.5-1.5c-0.8,0-1.5,0.7-1.5,1.5c0,0.1,0,0.3,0.1,0.4h-4.2
	c-0.8,0-1.4,0.6-1.4,1.4v2.2h0.4c0.8,0,1.4-0.6,1.4-1.4v-0.5h10.2v1.9h0.5c0.8,0,1.4-0.6,1.4-1.4v-2.2H660.9z"/>
<path class="st0" d="M664,109.4h-8.1c-0.7,0-1.3,0.6-1.3,1.3h8.1C663.4,110.7,664,110.1,664,109.4"/>
<path class="st0" d="M654.5,114.6h8.4c0.8,0,1.4-0.6,1.4-1.4v-1.9h-8.4c-0.8,0-1.4,0.6-1.4,1.4V114.6z M656.3,112.6h6.1v0.8h-6.1
	V112.6z"/>
<path class="st0" d="M677,113.9c1-0.8,2-1.7,2.7-2.7c-0.4-0.6-0.4-0.6-0.9-1.2l-0.6,0.1h-3.7c0.2-0.2,0.4-0.5,0.5-0.7
	c-0.7-0.2-1.1-0.2-1.8-0.4h6.9v1.8h0.6c0.8,0,1.4-0.6,1.4-1.4v-2.2h-5.8c0.1-0.3,0.2-0.6,0.1-1c-0.1-0.5-0.6-0.9-1.1-1.1
	c-1-0.2-1.8,0.5-1.8,1.5c0,0.2,0,0.4,0.1,0.6h-4.2c-0.8,0-1.4,0.6-1.4,1.4v2.2h0.5c0.8,0,1.4-0.6,1.4-1.4v-0.4h3.1
	c-0.6,0.9-1.6,1.8-2.9,2.5c-0.8,0.4-1,1.4-0.5,2.1c0,0.1,0.1,0.1,0.1,0.2c0.7-0.3,1.4-0.7,2-1.1c0.5,0.4,1,0.9,1.5,1.2
	c-1.2,0.5-2.6,1-4,1.3c-0.9,0.2-1.3,1.1-1,1.9c0,0.1,0,0.1,0.1,0.2c0.7-0.1,1.4-0.3,2.1-0.5v4.5h1.9v-0.5h5.6v0.5h0.6
	c0.8,0,1.4-0.6,1.4-1.4v-3.2c0.2,0,0.3,0.1,0.5,0.1c0.5,0.1,1-0.1,1.3-0.6c0.2-0.3,0.4-0.7,0.5-1c0-0.1,0-0.2-0.1-0.2
	C680.1,114.8,678.7,114.4,677,113.9 M673.1,111.7C673.1,111.6,673.1,111.6,673.1,111.7l3.8-0.1c-0.5,0.5-1.2,1-1.9,1.4
	C674.3,112.6,673.6,112.2,673.1,111.7 M677.8,119.2h-5.6c0-0.8,0.6-1.4,1.4-1.4h4.1V119.2z M672.4,116.2c0.9-0.3,1.8-0.7,2.6-1.1
	c0.9,0.4,1.8,0.8,2.8,1.1H672.4z"/>
<path class="st0" d="M679.3,81.2c0,1-1.1,1.7-2,1.3c-0.1-0.1-0.3-0.1-0.4-0.2c-0.8-0.3-1.6-0.5-2.6-0.5c-1.9,0-2.7,0.6-3.8,1.7
	c-1.1,1.1-1.7,2.6-1.7,4.5c0,1.8,0.5,3.3,1.5,4.4c1,1.1,1.8,1.6,3.6,1.6c1,0,2-0.2,2.8-0.5c0.1-0.1,0.3-0.1,0.4-0.2
	c0.9-0.4,2,0.3,2,1.3l0,1.2c-0.8,0.5-1.6,0.8-2.5,1.1c-0.9,0.2-1.8,0.3-2.8,0.3c-2.8,0-5.1-0.9-6.9-2.6c-1.8-1.7-2.7-3.9-2.7-6.6
	c0-2.7,0.9-4.9,2.7-6.6c1.8-1.7,4.1-2.6,6.9-2.6c0.9,0,1.9,0.1,2.7,0.3c0.9,0.2,1.8,0.5,2.6,0.9L679.3,81.2z"/>
<path class="st0" d="M679.6,97l6.2-17.8h4l5.6,15.9c0.3,1-0.3,2-1.2,2h-2l-1.3-3.8h-6.3l-0.8,2.8c-0.2,0.6-0.7,1-1.3,1H679.6z
	 M689.9,90.2l-1.8-5.8c-0.1-0.2-0.1-0.5-0.2-0.9c-0.1-0.4-0.2-0.9-0.3-1.5c-0.1,0.6-0.2,1.1-0.3,1.6c-0.1,0.5-0.2,0.8-0.2,0.9
	l-1.8,5.7H689.9z"/>
<path class="st0" d="M696.4,97V79.2h3.8v8.1l4.2-7.1c0.3-0.6,0.9-1,1.6-1h3.3l-5.1,8.1l5.1,7.4c0.7,1,0,2.3-1.2,2.3h-1.8l-6-9.3v7.9
	c0,0.8-0.7,1.5-1.5,1.5H696.4z"/>
<path class="st0" d="M632.9,79.2c0.8,0,1.5,0.7,1.5,1.5v9.9c0,1.1,0.2,1.9,0.6,2.4c0.4,0.5,1.1,0.7,2.1,0.7c1,0,1.6-0.2,2.1-0.7
	c0.4-0.5,0.6-1.3,0.6-2.3V79.2h2.1c0.8,0,1.5,0.7,1.5,1.5v9.9c0,2.2-0.5,3.8-1.5,4.8c-1,1-2.6,1.6-4.7,1.6c-2.2,0-3.8-0.5-4.8-1.5
	c-1-1-1.5-2.6-1.5-4.8V79.2H632.9z"/>
<path class="st0" d="M615.3,97V79.2h13V81c0,0.8-0.7,1.5-1.5,1.5h-7.5v3.8h9v1.9c0,0.8-0.7,1.5-1.5,1.5h-7.5v5.8
	c0,0.8-0.7,1.5-1.5,1.5H615.3z"/>
<path class="st0" d="M646.6,97V80.7c0-0.8,0.7-1.5,1.5-1.5h2.7v16.3c0,0.8-0.8,1.5-1.8,1.5H646.6z"/>
<path class="st0" d="M654.5,97V80.7c0-0.8,0.7-1.5,1.5-1.5h2.5v16.3c0,0.8-0.8,1.5-1.7,1.5H654.5z"/>
<path class="st0" d="M711,97.1V81.2c0-1,0.8-1.8,1.8-1.8h8.6v1.4c0,1-0.8,1.8-1.8,1.8h-4.8v3.6h6.6v1.4c0,1-0.8,1.8-1.8,1.8h-4.8
	v4.4h7.1v1.4c0,1-0.8,1.8-1.8,1.8H711z"/>
<path class="st0" d="M668.6,0c-19.2,0-34.8,15.6-34.8,34.8c0,3.9,0.6,7.6,1.8,11.1c0.1,0,0.3,0,0.4,0c2.9-0.1,5.7-0.8,8.2-1.7
	c0.1-1.9,0.1-3.8,0.4-5.5c0.6-2.9,2.2-5.2,4.8-6.8c0.7-0.5,1.6-0.8,2.4-1c3.4-0.6,5.9,2.1,5.1,5.5c-0.5,2.1-1.7,3.7-3.3,5
	c-1.6,1.3-3.4,2.3-5.1,3.5c-0.3,0.2-0.6,0.3-1,0.5c1.3,2.9,3.4,5.2,5.8,7.1c5.4,4.4,11.6,6.6,18.7,6c6.3-0.6,11.9-2.8,16-7.8
	c1.1-1.3,1.7-2.9,2.5-4.4c0.2-0.4,0.3-0.8,0.7-1c0.3-0.2,0.9-0.3,1.2-0.2c0.3,0.1,0.5,0.6,0.6,0.9c0.1,0.3-0.1,0.7-0.2,1.1
	c-1.7,4.3-4.7,7.7-8.8,10c-13,7.4-28.1,3.4-36.6-7.5c-0.8-1-1.3-2.1-2-3.2c-1.6,0.4-3.2,0.8-4.9,1.2c-1.3,0.3-2.6,0.4-3.9,0.5
	c5.2,12.6,17.6,21.5,32.2,21.5c19.2,0,34.8-15.6,34.8-34.8S687.8,0,668.6,0 M674.1,37.4c-1.4,0-2.6-1.2-2.6-2.6
	c0-1.4,1.2-2.6,2.6-2.6c1.4,0,2.6,1.2,2.6,2.6C676.7,36.2,675.5,37.4,674.1,37.4 M683,37.4c-1.4,0-2.6-1.2-2.6-2.6
	c0-1.4,1.2-2.6,2.6-2.6s2.6,1.2,2.6,2.6C685.6,36.2,684.4,37.4,683,37.4"/>
<path class="st0" d="M654.3,36.9c0.1-0.2,0.2-0.4,0.3-0.7c0.3-1,0.4-1.9-0.4-2.6c-0.8-0.7-1.8-0.6-2.7-0.2c-3.2,1.3-5.6,6-4.7,9.6
	C649.2,42.3,653.2,39.1,654.3,36.9"/>
<path class="st0" d="M24.8,12.1c1.2,0,2.1,1,2.1,2.1v14c0,1.5,0.3,2.7,0.9,3.3c0.6,0.7,1.6,1,2.9,1c1.3,0,2.3-0.3,2.9-1
	c0.6-0.7,0.9-1.8,0.9-3.3V12.1h2.9c1.2,0,2.1,1,2.1,2.1v14c0,3.1-0.7,5.3-2.2,6.8c-1.4,1.5-3.7,2.2-6.7,2.2c-3.1,0-5.3-0.7-6.8-2.2
	c-1.4-1.5-2.2-3.7-2.2-6.8V12.1H24.8z"/>
<path class="st0" d="M0,37.1V12.1h18.3v2.6c0,1.2-1,2.1-2.1,2.1H5.6v5.4h12.7v2.6c0,1.2-1,2.1-2.1,2.1H5.6V35c0,1.2-1,2.1-2.1,2.1H0
	z"/>
<path class="st0" d="M44.1,37.1V14.3c0-1.2,1-2.2,2.2-2.2H50V35c0,1.2-1.1,2.1-2.5,2.1H44.1z"/>
<path class="st0" d="M55.3,37.1V14.3c0-1.2,1-2.2,2.2-2.2h3.5V35c0,1.2-1.1,2.1-2.4,2.1H55.3z"/>
<path class="st0" d="M98.8,0.1c-15,0-27.2,12.2-27.2,27.2c0,3,0.5,5.9,1.4,8.6c0.1,0,0.2,0,0.3,0c2.3-0.1,4.5-0.6,6.4-1.3
	c0.1-1.5,0-2.9,0.3-4.3c0.5-2.3,1.7-4.1,3.7-5.3c0.6-0.4,1.2-0.6,1.9-0.8c2.7-0.5,4.6,1.7,4,4.3c-0.4,1.6-1.3,2.9-2.6,3.9
	c-1.3,1-2.7,1.8-4,2.7c-0.2,0.2-0.5,0.3-0.8,0.4c1,2.3,2.6,4,4.5,5.5c4.2,3.4,9.1,5.2,14.6,4.7c4.9-0.4,9.3-2.2,12.5-6.1
	c0.8-1,1.3-2.3,2-3.4c0.2-0.3,0.3-0.6,0.5-0.8c0.2-0.2,0.7-0.2,0.9-0.1c0.2,0.1,0.4,0.5,0.4,0.7c0,0.3-0.1,0.6-0.2,0.8
	c-1.4,3.4-3.6,6-6.8,7.8c-10.1,5.8-22,2.7-28.6-5.9c-0.6-0.8-1-1.7-1.6-2.5c-1.2,0.3-2.5,0.6-3.8,0.9c-1,0.2-2,0.3-3.1,0.4
	c4.1,9.9,13.8,16.8,25.1,16.8c15,0,27.2-12.2,27.2-27.2C126,12.3,113.8,0.1,98.8,0.1 M103.1,29.3c-1.1,0-2-0.9-2-2c0-1.1,0.9-2,2-2
	c1.1,0,2,0.9,2,2C105.1,28.4,104.2,29.3,103.1,29.3 M110.1,29.3c-1.1,0-2-0.9-2-2c0-1.1,0.9-2,2-2c1.1,0,2,0.9,2,2
	C112.1,28.4,111.2,29.3,110.1,29.3"/>
<path class="st0" d="M87.6,29c0.1-0.2,0.2-0.3,0.2-0.5c0.2-0.7,0.3-1.5-0.3-2.1c-0.6-0.6-1.4-0.5-2.1-0.2c-2.5,1-4.3,4.7-3.6,7.5
	C83.7,33.2,86.8,30.7,87.6,29"/>
<path class="st0" d="M31.8,41.7c-0.1,1.4-1.6,2.4-2.9,1.8c-0.2-0.1-0.4-0.2-0.6-0.2c-1.1-0.4-2.3-0.7-3.6-0.7
	c-2.6,0-3.8,0.8-5.4,2.4c-1.6,1.6-2.3,3.7-2.3,6.3c0,2.6,0.7,4.6,2.2,6.2c1.4,1.5,2.5,2.3,5,2.3c1.4,0,2.8-0.2,4-0.7
	c0.2-0.1,0.4-0.2,0.6-0.2c1.3-0.6,2.8,0.4,2.8,1.9l0,1.6c-1.1,0.7-2.3,1.2-3.5,1.5c-1.2,0.3-2.5,0.5-3.9,0.5c-3.9,0-7.2-1.2-9.7-3.7
	c-2.5-2.4-3.8-5.5-3.8-9.3c0-3.7,1.3-6.8,3.8-9.3c2.5-2.4,5.8-3.7,9.8-3.7c1.3,0,2.6,0.1,3.9,0.4c1.2,0.3,2.5,0.7,3.7,1.3L31.8,41.7
	z"/>
<path class="st0" d="M32.3,63.9L41,38.8h5.6l7.8,22.3c0.5,1.3-0.4,2.8-1.7,2.8h-2.8L48,58.6h-8.9L38,62.5c-0.3,0.8-1,1.4-1.8,1.4
	H32.3z M46.8,54.4l-2.6-8.1C44.2,46,44.1,45.6,44,45c-0.1-0.6-0.2-1.3-0.4-2.1c-0.1,0.8-0.3,1.5-0.4,2.2c-0.1,0.6-0.2,1.1-0.3,1.3
	l-2.5,8H46.8z"/>
<path class="st0" d="M55.3,63.9V38.8h5.4v11.4l5.9-10c0.4-0.9,1.3-1.4,2.3-1.4h4.6l-7.2,11.4l7.1,10.5c0.9,1.4,0,3.2-1.7,3.2h-2.6
	l-8.4-13.1v11.1c0,1.1-0.9,2.1-2.1,2.1H55.3z"/>
</svg>
